<svg width="64" height="64" viewBox="0 0 64 64" fill="none" xmlns="http://www.w3.org/2000/svg">
<path d="M28 25.5C28 24.65 28.65 24 29.5 24C30.35 24 31 24.65 31 25.5V40.9004L35.9502 35.9502C36.5502 35.3502 37.4498 35.3502 38.0498 35.9502C38.6498 36.5002 38.6498 37.4498 38.0498 38.0498L30.5498 45.5498C29.9998 46.1498 29.0502 46.1498 28.4502 45.5498L20.9502 38.0498C20.6502 37.7498 20.5 37.4 20.5 37C20.5 36.6 20.6502 36.2502 20.9502 35.9502C21.5002 35.3502 22.4498 35.3502 23.0498 35.9502L28 40.9004V25.5Z" fill="#333333"/>
<path fill-rule="evenodd" clip-rule="evenodd" d="M59 34.5C59 50.7924 45.7924 64 29.5 64C13.2076 64 0 50.7924 0 34.5C0 18.2076 13.2076 5 29.5 5C45.7924 5 59 18.2076 59 34.5ZM56 34.5C56 49.1355 44.1355 61 29.5 61C14.8645 61 3 49.1355 3 34.5C3 19.8645 14.8645 8 29.5 8C44.1355 8 56 19.8645 56 34.5Z" fill="#333333"/>
</svg>
